<svg fill="none" height="24" viewBox="0 0 24 24" width="24" xmlns="http://www.w3.org/2000/svg"><g fill="#292d32"><path d="m17.0998 2h-4.2c-3.45004 0-4.85003 1.37-4.89003 4.75h3.09003c4.2 0 6.15 1.95 6.15 6.15v3.09c3.38-.04 4.75-1.44 4.75-4.89v-4.2c0-3.5-1.4-4.9-4.9-4.9z" opacity=".4"/><path d="m11.1 8h-4.2c-3.5 0-4.9 1.4-4.9 4.9v4.2c0 3.5 1.4 4.9 4.9 4.9h4.2c3.5 0 4.9-1.4 4.9-4.9v-4.2c0-3.5-1.4-4.9-4.9-4.9zm1.19 5.65-3.71 3.71c-.14.14-.32.21-.51.21s-.37-.07-.51-.21l-1.86-1.86c-.28-.28-.28-.73 0-1.01s.73-.28 1.01 0l1.35 1.35 3.21-3.21c.28-.28.73-.28 1.01 0s.29.74.01 1.02z"/></g></svg>