<svg width="14" height="16" viewBox="0 0 14 16" fill="none" xmlns="http://www.w3.org/2000/svg">
  <path d="M11 6.66663C11 7.32324 10.8707 7.97342 10.6194 8.58004C10.3681 9.18667 9.99983 9.73787 9.53553 10.2022C9.07124 10.6665 8.52005 11.0348 7.91342 11.286C7.30679 11.5373 6.65661 11.6666 6 11.6666C5.34339 11.6666 4.69321 11.5373 4.08658 11.286C3.47995 11.0348 2.92876 10.6665 2.46447 10.2022C2.00017 9.73787 1.63188 9.18667 1.3806 8.58004C1.12933 7.97342 1 7.32324 1 6.66663C1 5.34054 1.52678 4.06877 2.46447 3.13109C3.40215 2.19341 4.67392 1.66663 6 1.66663C7.32608 1.66663 8.59785 2.19341 9.53553 3.13109C10.4732 4.06877 11 5.34054 11 6.66663Z" stroke="#101423" stroke-width="2" stroke-linecap="round" stroke-linejoin="round"/>
  <path d="M9 10.3333L13 14.3333" stroke="#101423" stroke-width="2"/>
</svg>
