<svg width="18" height="18" viewBox="0 0 18 18" fill="none" xmlns="http://www.w3.org/2000/svg">
  <path fill-rule="evenodd" clip-rule="evenodd" d="M8.97315 0C4.01123 0 0 4.12498 0 9.22815C0 13.3074 2.57013 16.7604 6.13559 17.9825C6.58136 18.0744 6.74465 17.7839 6.74465 17.5396C6.74465 17.3257 6.72995 16.5924 6.72995 15.8283C4.23384 16.3784 3.71405 14.7283 3.71405 14.7283C3.31291 13.6588 2.71854 13.3839 2.71854 13.3839C1.90156 12.8186 2.77805 12.8186 2.77805 12.8186C3.68429 12.8797 4.15982 13.7658 4.15982 13.7658C4.96192 15.1713 6.25442 14.7742 6.7744 14.5297C6.8486 13.9338 7.08646 13.5213 7.33901 13.2922C5.34818 13.0783 3.25358 12.2838 3.25358 8.73915C3.25358 7.73078 3.6099 6.90578 4.17451 6.26416C4.08543 6.03504 3.77337 5.0876 4.26378 3.81955C4.26378 3.81955 5.02143 3.57505 6.72977 4.76679C7.46117 4.56479 8.21545 4.46203 8.97315 4.46117C9.7308 4.46117 10.5031 4.56823 11.2163 4.76679C12.9249 3.57505 13.6825 3.81955 13.6825 3.81955C14.1729 5.0876 13.8607 6.03504 13.7716 6.26416C14.3511 6.90578 14.6927 7.73078 14.6927 8.73915C14.6927 12.2838 12.5981 13.0629 10.5924 13.2922C10.9193 13.5824 11.2015 14.1324 11.2015 15.0033C11.2015 16.2408 11.1868 17.234 11.1868 17.5394C11.1868 17.7839 11.3502 18.0744 11.7958 17.9827C15.3613 16.7602 17.9314 13.3074 17.9314 9.22815C17.9461 4.12498 13.9202 0 8.97315 0Z" fill="#fff"/>
</svg>