<svg width="18" height="18" viewBox="0 0 18 18" fill="none" xmlns="http://www.w3.org/2000/svg">
  <g clip-path="url(#clip0_151_1174)">
    <path d="M4.93964 4.56087L11.5837 13.4414H13.0874L6.44565 4.56087H4.93964Z" fill="#fff"/>
    <path d="M9.00001 0.112724C4.09194 0.112724 0.112732 4.09193 0.112732 9C0.112732 13.9081 4.09194 17.8873 9.00001 17.8873C13.9081 17.8873 17.8873 13.9081 17.8873 9C17.8873 4.09193 13.9081 0.112724 9.00001 0.112724ZM11.2275 14.1493L8.20417 10.107L4.46168 14.1493H3.499L7.77355 9.53206L3.52606 3.8507H6.79961L9.58392 7.57515L13.0311 3.8507H13.9937L10.0145 8.15005L14.501 14.1493H11.2275Z" fill="#fff"/>
  </g>
  <defs>
    <clipPath id="clip0_151_1174">
      <rect width="18" height="18" fill="white"/>
    </clipPath>
  </defs>
</svg>