<svg width="111" height="44" viewBox="0 0 111 44" fill="none" xmlns="http://www.w3.org/2000/svg">
  <g id="_&#208;&#161;&#208;&#187;&#208;&#190;&#208;&#185;_1" clip-path="url(#clip0_2556_4091)">
    <g id="Group">
      <path id="Vector" d="M44.2954 24.231H40.1907L46.4462 6.66418H51.3821L57.6259 24.231H53.5212L48.9831 10.6787H48.8413L44.2954 24.231ZM44.0354 17.325H53.7299V20.2242H44.0354V17.325Z" fill="#1D1D1B"/>
      <path id="Vector_2" d="M62.9242 24.231H58.8195L65.0751 6.66418H70.011L76.2547 24.231H72.15L67.612 10.6787H67.4702L62.9242 24.231ZM62.6682 17.325H72.3627V20.2242H62.6682V17.325Z" fill="#1D1D1B"/>
      <path id="Vector_3" d="M79.4573 6.66418L83.8378 20.0103H84.0072L88.3955 6.66418H92.6421L86.3983 24.231H81.4624L75.2068 6.66418H79.4613H79.4573Z" fill="#1D1D1B"/>
      <path id="Vector_4" d="M94.8126 24.231V6.66418H107.02V9.72759H98.6415V13.914H106.39V16.9774H98.6415V21.1714H107.056V24.2349H94.8126V24.231Z" fill="#1D1D1B"/>
    </g>
    <g id="Dash">
      <g id="Group_2">
        <path id="Vector_5" fill-rule="evenodd" clip-rule="evenodd" d="M6.09049 43.8675L0.219716 40.7783L0.133972 30.1674L6.00474 33.2566L6.09049 43.8675Z" fill="#C4C1CF" stroke="#1D1D1B" stroke-linecap="round" stroke-linejoin="round"/>
        <path id="Vector_6" fill-rule="evenodd" clip-rule="evenodd" d="M6.09588 43.8701L33.2659 29.0527L33.1829 18.4418L6.01013 33.2565L6.09588 43.8701Z" fill="white" stroke="#1D1D1B" stroke-linecap="round" stroke-linejoin="round"/>
        <path id="Vector_7" fill-rule="evenodd" clip-rule="evenodd" d="M6.04799 33.2877L0.137024 30.1673L27.2857 15.3136L33.1939 18.434L6.04799 33.2877Z" fill="#EAEEFA" stroke="#1D1D1B" stroke-linecap="round" stroke-linejoin="round"/>
      </g>
      <g id="Group_3">
        <path id="Vector_8" fill-rule="evenodd" clip-rule="evenodd" d="M6.09049 28.6838L0.219716 25.5946L0.133972 14.9836L6.00474 18.0703L6.09049 28.6838Z" fill="#C4C1CF" stroke="#1D1D1B" stroke-linecap="round" stroke-linejoin="round"/>
        <path id="Vector_9" fill-rule="evenodd" clip-rule="evenodd" d="M6.09588 28.6863L33.2659 13.869L33.1829 3.25806L6.01013 18.0728L6.09588 28.6863Z" fill="#1D1D1B" stroke="#1D1D1B" stroke-linecap="round" stroke-linejoin="round"/>
        <path id="Vector_10" fill-rule="evenodd" clip-rule="evenodd" d="M6.04799 18.104L0.137024 14.9836L27.2857 0.129883L33.1939 3.25028L6.04799 18.104Z" fill="#EAEEFA" stroke="#1D1D1B" stroke-linecap="round" stroke-linejoin="round"/>
      </g>
    </g>
    <g id="Group_4">
      <path id="Vector_11" d="M42.1721 37.7757H40.104V31.584H42.2352C42.8615 31.584 43.3972 31.7062 43.8463 31.9545C44.2954 32.2028 44.6381 32.5542 44.8784 33.0164C45.1187 33.4786 45.2369 34.0286 45.2369 34.6703C45.2369 35.312 45.1148 35.8697 44.8745 36.3319C44.6302 36.7941 44.2836 37.1531 43.8266 37.4014C43.3697 37.6497 42.8182 37.7757 42.1682 37.7757H42.1721ZM41.0652 36.9583H42.117C42.6054 36.9583 43.0072 36.8705 43.3303 36.6909C43.6533 36.5114 43.8936 36.2555 44.0551 35.9155C44.2166 35.5756 44.2954 35.163 44.2954 34.6703C44.2954 34.1776 44.2166 33.7727 44.0551 33.4327C43.8936 33.0928 43.6612 32.8368 43.346 32.6611C43.0309 32.4854 42.6409 32.3976 42.1761 32.3976H41.0652V36.9583Z" fill="#1D1D1B"/>
      <path id="Vector_12" d="M47.758 37.8788C47.4547 37.8788 47.1789 37.8254 46.9347 37.7146C46.6905 37.6038 46.4935 37.4434 46.3517 37.2371C46.2099 37.0309 46.139 36.7711 46.139 36.4655C46.139 36.202 46.1902 35.9881 46.2965 35.82C46.399 35.6519 46.5408 35.5183 46.7181 35.4189C46.8953 35.3196 47.0923 35.2471 47.3089 35.1974C47.5256 35.1477 47.7501 35.1095 47.9747 35.0828C48.2622 35.0522 48.4947 35.0255 48.6719 35.0026C48.8492 34.9797 48.9792 34.9453 49.0619 34.8995C49.1446 34.8536 49.184 34.7734 49.184 34.6626V34.6397C49.184 34.3762 49.1092 34.1699 48.9556 34.0247C48.8019 33.8796 48.5774 33.807 48.2741 33.807C47.9707 33.807 47.7147 33.8758 47.5335 34.0095C47.3523 34.1432 47.2302 34.2921 47.1592 34.4564L46.2847 34.2616C46.3871 33.9789 46.5408 33.7497 46.7417 33.5778C46.9426 33.4021 47.175 33.2761 47.435 33.1959C47.6989 33.1156 47.9707 33.0775 48.2622 33.0775C48.4553 33.0775 48.6562 33.1004 48.8728 33.1424C49.0895 33.1844 49.2904 33.2646 49.4795 33.3792C49.6686 33.4938 49.8222 33.6581 49.9443 33.872C50.0664 34.0859 50.1255 34.3609 50.1255 34.7008V37.7833H49.2155V37.1493H49.1801C49.121 37.2677 49.0304 37.3823 48.9083 37.493C48.7862 37.6076 48.6325 37.6993 48.4434 37.7757C48.2544 37.8521 48.0259 37.8865 47.762 37.8865L47.758 37.8788ZM47.9629 37.1531C48.2189 37.1531 48.4395 37.1034 48.6247 37.0041C48.8098 36.9048 48.9477 36.7749 49.0462 36.6145C49.1446 36.4541 49.1919 36.2822 49.1919 36.0988V35.4992C49.1604 35.5297 49.0934 35.5603 48.9989 35.587C48.9043 35.6137 48.798 35.6367 48.6759 35.6558C48.5537 35.6749 48.4395 35.6901 48.3253 35.7054C48.211 35.7207 48.1165 35.7322 48.0377 35.7436C47.8565 35.7665 47.691 35.8047 47.5453 35.8544C47.3956 35.9079 47.2774 35.9804 47.1908 36.0797C47.1041 36.1791 47.0568 36.3051 47.0568 36.4694C47.0568 36.6909 47.1435 36.8628 47.3129 36.9774C47.4823 37.092 47.6989 37.1493 47.9629 37.1493V37.1531Z" fill="#1D1D1B"/>
      <path id="Vector_13" d="M54.9511 34.2654L54.1042 34.4105C54.0687 34.3074 54.0136 34.2043 53.9387 34.1126C53.8639 34.0171 53.7615 33.9407 53.6315 33.8796C53.5015 33.8185 53.34 33.7879 53.1469 33.7879C52.883 33.7879 52.6624 33.8452 52.4851 33.9598C52.3079 34.0744 52.2212 34.2196 52.2212 34.3991C52.2212 34.5557 52.2803 34.6779 52.3985 34.7734C52.5166 34.8689 52.7097 34.9453 52.9736 35.0064L53.7339 35.1745C54.1751 35.2738 54.502 35.4266 54.7187 35.6328C54.9354 35.8391 55.0417 36.1065 55.0417 36.435C55.0417 36.7138 54.959 36.9621 54.7935 37.176C54.6281 37.3937 54.3996 37.5618 54.1042 37.684C53.8087 37.8063 53.4699 37.8674 53.0839 37.8674C52.5482 37.8674 52.1109 37.7566 51.7721 37.5351C51.4333 37.3135 51.2246 36.9965 51.1497 36.584L52.0518 36.4503C52.107 36.6794 52.2251 36.8513 52.3985 36.9659C52.5718 37.0805 52.8003 37.1416 53.08 37.1416C53.3872 37.1416 53.6315 37.0805 53.8127 36.9545C53.9939 36.8322 54.0884 36.6794 54.0884 36.4999C54.0884 36.3548 54.0333 36.2325 53.923 36.1332C53.8127 36.0339 53.6433 35.9613 53.4148 35.9079L52.6033 35.736C52.1582 35.6367 51.8273 35.4801 51.6146 35.2623C51.4018 35.0484 51.2955 34.7734 51.2955 34.4449C51.2955 34.1699 51.3743 33.9293 51.5318 33.7268C51.6894 33.5205 51.91 33.3601 52.1857 33.2455C52.4654 33.1309 52.7845 33.0698 53.143 33.0698C53.659 33.0698 54.0687 33.1768 54.3642 33.3945C54.6596 33.6122 54.8566 33.9025 54.9551 34.2654H54.9511Z" fill="#1D1D1B"/>
      <path id="Vector_14" d="M56.9995 35.0179V37.7757H56.0659V31.584H56.9838V33.8873H57.0429C57.1571 33.639 57.3265 33.4404 57.5589 33.2914C57.7874 33.1462 58.0907 33.0699 58.461 33.0699C58.788 33.0699 59.0755 33.1348 59.3237 33.2647C59.5679 33.3945 59.761 33.5893 59.8988 33.8491C60.0367 34.1088 60.1037 34.4297 60.1037 34.8193V37.7719H59.1701V34.9262C59.1701 34.5863 59.0795 34.3227 58.8983 34.1317C58.717 33.9407 58.4649 33.8491 58.1419 33.8491C57.9213 33.8491 57.7244 33.8949 57.551 33.9866C57.3777 34.0783 57.2398 34.2081 57.1413 34.3838C57.0429 34.5595 56.9916 34.7696 56.9916 35.0141L56.9995 35.0179Z" fill="#1D1D1B"/>
      <path id="Vector_15" d="M61.4273 37.7757V31.584H62.3609V33.8834H62.4161C62.4712 33.788 62.5461 33.6734 62.6485 33.5473C62.7509 33.4213 62.8927 33.3105 63.0739 33.2112C63.2551 33.1157 63.4954 33.066 63.7909 33.066C64.1769 33.066 64.5236 33.1615 64.8269 33.3487C65.1302 33.5397 65.3705 33.8109 65.5438 34.1699C65.7172 34.5252 65.8038 34.9568 65.8038 35.4572C65.8038 35.9576 65.7172 36.3892 65.5438 36.7482C65.3705 37.1073 65.1342 37.3823 64.8348 37.5733C64.5315 37.7643 64.1887 37.8636 63.8027 37.8636C63.5112 37.8636 63.2748 37.8178 63.0897 37.7223C62.9045 37.6268 62.7627 37.516 62.6564 37.3899C62.5539 37.2639 62.4712 37.1493 62.4161 37.05H62.3373V37.7719H61.4273V37.7757ZM62.3412 35.4533C62.3412 35.778 62.3885 36.0645 62.487 36.3128C62.5855 36.5611 62.7273 36.7521 62.9124 36.8896C63.0976 37.0271 63.3221 37.0958 63.5939 37.0958C63.8657 37.0958 64.106 37.0232 64.2912 36.8781C64.4763 36.733 64.6181 36.5381 64.7166 36.2899C64.8151 36.0416 64.8624 35.7627 64.8624 35.4533C64.8624 35.144 64.8151 34.8728 64.7205 34.6283C64.626 34.3838 64.4842 34.1928 64.2951 34.0515C64.106 33.9102 63.8736 33.8414 63.59 33.8414C63.3063 33.8414 63.0936 33.9102 62.9045 34.0439C62.7194 34.1776 62.5776 34.3686 62.483 34.6092C62.3885 34.8498 62.3412 35.1325 62.3412 35.4572V35.4533Z" fill="#1D1D1B"/>
      <path id="Vector_16" d="M68.8646 37.8674C68.4155 37.8674 68.0255 37.7681 67.6907 37.5695C67.3559 37.3708 67.0959 37.092 66.9107 36.733C66.7256 36.3739 66.631 35.9537 66.631 35.4763C66.631 34.9988 66.7256 34.5748 66.9107 34.2119C67.0959 33.8529 67.3559 33.5702 67.6907 33.3716C68.0255 33.173 68.4155 33.0737 68.8646 33.0737C69.3137 33.0737 69.7037 33.173 70.0385 33.3716C70.3734 33.5702 70.6333 33.8529 70.8185 34.2119C71.0036 34.5748 71.0982 34.995 71.0982 35.4763C71.0982 35.9575 71.0036 36.3739 70.8185 36.733C70.6333 37.092 70.3734 37.3708 70.0385 37.5695C69.7037 37.7681 69.3137 37.8674 68.8646 37.8674ZM68.8686 37.1111C69.1601 37.1111 69.4004 37.0347 69.5934 36.8857C69.7864 36.7368 69.9243 36.5381 70.0188 36.2899C70.1094 36.0416 70.1567 35.7704 70.1567 35.4686C70.1567 35.1669 70.1094 34.8995 70.0188 34.6512C69.9243 34.4029 69.7864 34.2005 69.5934 34.0515C69.4004 33.8987 69.1601 33.8262 68.8686 33.8262C68.577 33.8262 68.3328 33.9025 68.1398 34.0515C67.9468 34.2005 67.8049 34.4029 67.7143 34.6512C67.6198 34.8995 67.5765 35.1745 67.5765 35.4686C67.5765 35.7627 67.6237 36.0416 67.7143 36.2899C67.8049 36.5381 67.9507 36.7368 68.1398 36.8857C68.3289 37.0347 68.5731 37.1111 68.8686 37.1111Z" fill="#1D1D1B"/>
      <path id="Vector_17" d="M73.5287 37.8788C73.2254 37.8788 72.9496 37.8254 72.7054 37.7146C72.4612 37.6038 72.2642 37.4434 72.1224 37.2371C71.9806 37.0309 71.9097 36.7711 71.9097 36.4655C71.9097 36.202 71.9609 35.9881 72.0672 35.82C72.1697 35.6519 72.3115 35.5183 72.4887 35.4189C72.666 35.3196 72.863 35.2471 73.0796 35.1974C73.2963 35.1477 73.5208 35.1095 73.7454 35.0828C74.0329 35.0522 74.2653 35.0255 74.4426 35.0026C74.6199 34.9797 74.7499 34.9453 74.8326 34.8995C74.9153 34.8536 74.9547 34.7734 74.9547 34.6626V34.6397C74.9547 34.3762 74.8799 34.1699 74.7262 34.0247C74.5726 33.8796 74.3481 33.807 74.0448 33.807C73.7414 33.807 73.4854 33.8758 73.3042 34.0095C73.123 34.1432 73.0008 34.2921 72.9299 34.4564L72.0554 34.2616C72.1578 33.9789 72.3115 33.7497 72.5124 33.5778C72.7133 33.4021 72.9457 33.2761 73.2057 33.1959C73.4696 33.1156 73.7414 33.0775 74.0329 33.0775C74.226 33.0775 74.4269 33.1004 74.6435 33.1424C74.8602 33.1844 75.0611 33.2646 75.2502 33.3792C75.4393 33.4938 75.5929 33.6581 75.715 33.872C75.8371 34.0859 75.8962 34.3609 75.8962 34.7008V37.7833H74.9862V37.1493H74.9508C74.8917 37.2677 74.8011 37.3823 74.679 37.493C74.5569 37.6076 74.4032 37.6993 74.2141 37.7757C74.0251 37.8521 73.7966 37.8865 73.5326 37.8865L73.5287 37.8788ZM73.7335 37.1531C73.9896 37.1531 74.2102 37.1034 74.3953 37.0041C74.5805 36.9048 74.7184 36.7749 74.8168 36.6145C74.9153 36.4541 74.9626 36.2822 74.9626 36.0988V35.4992C74.9311 35.5297 74.8641 35.5603 74.7696 35.587C74.675 35.6137 74.5687 35.6367 74.4466 35.6558C74.3244 35.6749 74.2102 35.6901 74.096 35.7054C73.9817 35.7207 73.8872 35.7322 73.8084 35.7436C73.6272 35.7665 73.4617 35.8047 73.316 35.8544C73.1663 35.9079 73.0481 35.9804 72.9615 36.0797C72.8748 36.1791 72.8275 36.3051 72.8275 36.4694C72.8275 36.6909 72.9142 36.8628 73.0836 36.9774C73.253 37.092 73.4696 37.1493 73.7335 37.1493V37.1531Z" fill="#1D1D1B"/>
      <path id="Vector_18" d="M77.1331 37.7757V33.1309H78.0352V33.8681H78.0864C78.1731 33.6199 78.3267 33.4212 78.5513 33.2761C78.7719 33.1309 79.024 33.0583 79.3037 33.0583C79.3627 33.0583 79.4297 33.0584 79.5124 33.066C79.5912 33.0698 79.6543 33.0736 79.7015 33.0813V33.9445C79.6661 33.9331 79.5991 33.9216 79.5006 33.9101C79.4061 33.8987 79.3076 33.891 79.2131 33.891C78.9925 33.891 78.7955 33.9369 78.6261 34.0247C78.4567 34.1126 78.3188 34.2386 78.2204 34.3952C78.1219 34.5519 78.0707 34.7352 78.0707 34.9338V37.7681H77.1371L77.1331 37.7757Z" fill="#1D1D1B"/>
      <path id="Vector_19" d="M82.1281 37.8674C81.7421 37.8674 81.3954 37.7719 81.096 37.5771C80.7927 37.3861 80.5564 37.1111 80.387 36.752C80.2176 36.393 80.1309 35.9652 80.1309 35.461C80.1309 34.9568 80.2176 34.5289 80.3909 34.1737C80.5642 33.8185 80.8045 33.5435 81.1079 33.3525C81.4112 33.1615 81.7539 33.0698 82.14 33.0698C82.4354 33.0698 82.6757 33.1195 82.8569 33.215C83.0381 33.3105 83.1799 33.4212 83.2823 33.5511C83.3848 33.6772 83.4635 33.7917 83.5187 33.8872H83.5738V31.5878H84.5075V37.7795H83.5975V37.0576H83.5187C83.4635 37.1569 83.3808 37.2677 83.2784 37.3975C83.172 37.5236 83.0302 37.6344 82.8451 37.7299C82.6639 37.8254 82.4236 37.8712 82.136 37.8712L82.1281 37.8674ZM82.333 37.0958C82.6008 37.0958 82.8293 37.027 83.0145 36.8895C83.1996 36.752 83.3414 36.561 83.4399 36.3127C83.5384 36.0683 83.5857 35.7818 83.5857 35.4533C83.5857 35.1248 83.5384 34.8498 83.4438 34.6053C83.3493 34.3647 83.2075 34.1737 83.0223 34.04C82.8372 33.9063 82.6087 33.8376 82.3369 33.8376C82.0651 33.8376 81.8209 33.9102 81.6357 34.0477C81.4506 34.189 81.3088 34.38 81.2142 34.6244C81.1197 34.8689 81.0724 35.1439 81.0724 35.4495C81.0724 35.7551 81.1197 36.0377 81.2142 36.286C81.3088 36.5343 81.4506 36.7291 81.6397 36.8742C81.8287 37.0194 82.0612 37.092 82.3369 37.092L82.333 37.0958Z" fill="#1D1D1B"/>
    </g>
  </g>
  <defs>
    <clipPath id="clip0_2556_4091">
      <rect width="111" height="44" fill="white"/>
    </clipPath>
  </defs>
</svg>
